<?xml version="1.0" encoding="UTF-8"?>
<svg width="45mm" height="89mm" viewBox="0 0 45 89" xmlns="http://www.w3.org/2000/svg">
  <path id="glyph_2012_S" d="M 16.9955 0.0015 C 7.1084 0.178 0.2789 9.7257 0.2916 16.5392 C 0.2916 16.5392 0.3238 33.7558 0.3238 33.7558 C 0.4025 44.8168 10.5142 50.8107 16.6292 50.8322 C 16.6292 50.8322 27.0298 50.8689 27.0298 50.8689 C 28.8609 50.9482 31.5921 52.5945 31.6075 54.9705 C 31.6075 54.9705 31.7173 71.9629 31.7173 71.9629 C 31.7158 73.9157 29.3695 76.3307 26.81 76.3209 C 26.81 76.3209 17.2518 76.2842 17.2518 76.2842 C 15.3955 76.2364 13.3647 74.2115 13.2967 72.3291 C 13.2967 72.3291 13.2601 68.0077 13.2601 68.0077 C 13.2601 68.0077 1.5778 78.1885 1.5778 78.1885 C 4.0436 83.1691 9.612 89.0183 17.0687 88.9919 C 17.0687 88.9919 28.6777 88.9919 28.6777 88.9919 C 35.9563 88.9037 44.7292 80.88 44.718 72.6587 C 44.718 72.6587 44.6939 54.9856 44.6939 54.9856 C 44.6936 46.194 36.0468 37.8784 26.3213 37.9414 C 26.3213 37.9414 17.5955 37.9887 17.5955 37.9887 C 15.7528 37.9739 13.3375 35.5344 13.3333 33.6933 C 13.3333 33.6933 13.2967 17.6164 13.2967 17.6164 C 13.2719 14.9728 15.6004 12.8371 17.5448 12.6725 C 17.5448 12.6725 27.5791 12.6725 27.5791 12.6725 C 29.2632 12.7437 31.7027 15.6824 31.7173 17.1769 C 31.7173 17.1769 31.754 20.9123 31.754 20.9123 C 31.754 20.9123 44.5375 18.1626 44.5375 18.1626 C 44.5375 18.1626 44.5375 15.2993 44.5375 15.2993 C 44.536 9.9268 36.4781 -0.0718 28.0552 -0.0352 C 28.0552 -0.0352 16.9955 0.0015 16.9955 0.0015 Z" fill="#000" fill-rule="evenodd"/>
</svg>
