<?xml version="1.0" encoding="UTF-8"?>
<svg width="45mm" height="89mm" viewBox="0 0 45 89" xmlns="http://www.w3.org/2000/svg">
  <path id="glyph_2012_Q" d="M 17.8088 0.0856 C 8.0181 0.1862 0.5699 9.13 0.5675 16.618 C 0.5675 16.618 0.5506 69.0533 0.5506 69.0533 C 0.5913 78.7335 9.5508 86.1192 15.6893 86.1236 C 15.6893 86.1236 27.9494 86.1326 27.9494 86.1326 C 29.654 86.1827 34.1618 83.8837 34.1618 83.8837 C 35.4806 85.3697 36.2821 86.4676 38.1261 88.3474 C 39.6803 89.7966 44.478 88.843 44.497 85.0204 C 44.2975 82.5532 42.5061 80.063 41.1579 77.993 C 41.1579 77.993 41.1287 76.7518 41.1287 76.7518 C 41.8851 75.7325 42.9827 72.2478 42.9867 70.2983 C 42.9867 70.2983 43.0968 16.0662 43.0968 16.0662 C 42.9762 9.4025 35.8068 0.0987 26.0269 0.0556 C 26.0269 0.0556 17.8088 0.0856 17.8088 0.0856 Z M 17.0334 12.4046 C 17.0334 12.4046 27.4239 12.4046 27.4239 12.4046 C 29.1197 12.4046 30.8184 14.974 30.7778 16.3348 C 30.7778 16.3348 30.793 55.7606 30.793 55.7606 C 30.7937 57.3932 29.0892 57.6843 28.6143 57.0791 C 21.0929 46.7763 20.3169 45.5843 14.5166 38.718 C 13.1938 37.1521 13.0036 36.5761 12.9598 34.9247 C 12.9598 34.9247 12.9381 16.4474 12.9381 16.4474 C 12.9362 14.9415 15.8627 12.426 17.0334 12.4046 C 17.0334 12.4046 17.0334 12.4046 17.0334 12.4046 Z M 14.1797 55.9056 C 14.6462 55.8842 15.1272 56.0903 15.3628 56.4787 C 20.0255 64.1913 20.8569 65.5786 25.2451 71.7263 C 25.9492 72.8957 25.1375 73.8501 24.6063 73.8695 C 24.6063 73.8695 17.2441 73.9236 17.2441 73.9236 C 16.1504 73.9316 13.0035 71.735 12.9962 69.1266 C 12.9962 69.1266 13.0054 57.2162 13.0054 57.2162 C 13.0042 56.3374 13.58 55.9333 14.1797 55.9057 C 14.1797 55.9057 14.1797 55.9056 14.1797 55.9056 Z" fill="#000" fill-rule="evenodd"/>
</svg>
